<svg width="1160" height="922" viewBox="0 0 1160 922" fill="none" xmlns="http://www.w3.org/2000/svg">
<path d="M747.131 780.037C747.377 780.352 746.241 781.693 743.723 784.059C741.191 786.537 739.041 788.464 737.274 789.84C730.267 795.295 725.893 797.231 724.153 795.646L683.573 760.324L708.34 807.957C709.386 810.082 706.185 814.045 698.737 819.844C696.906 821.269 694.504 822.937 691.53 824.847C688.556 826.757 686.946 827.554 686.7 827.238L654.657 751.508C654.124 750.301 655.47 748.188 658.696 745.17C663.619 740.424 668.413 736.489 673.077 733.364C677.728 730.352 680.523 729.19 681.464 729.877L747.131 780.037Z" fill="white"/>
<path d="M762.854 679.563C772.533 673.927 782.3 672.497 792.157 675.274C801.944 678.092 810.381 685.584 817.466 697.751C824.592 709.987 826.911 721.043 824.421 730.917C821.863 740.831 815.71 748.626 805.962 754.303C796.146 760.02 786.418 761.518 776.781 758.799C767.183 756.149 758.721 748.533 751.394 735.951C744.107 723.438 741.748 712.313 744.318 702.578C746.928 692.911 753.107 685.239 762.854 679.563ZM794.575 734.272C797.894 732.34 799.808 729.188 800.318 724.818C800.759 720.488 799.369 715.558 796.148 710.027C792.967 704.566 789.44 700.973 785.566 699.248C781.732 697.592 778.087 697.771 774.63 699.784C771.104 701.837 769.136 704.974 768.724 709.195C768.242 713.456 769.612 718.352 772.833 723.882C776.054 729.413 779.67 733 783.683 734.644C787.626 736.329 791.257 736.205 794.575 734.272Z" fill="white"/>
<path d="M105.371 229.757L74.9948 199.719L69.0041 205.777C68.0478 206.744 66.1498 206.218 63.31 204.197C61.9467 203.186 60.6393 202.062 59.3878 200.825C58.1364 199.587 56.9977 198.293 55.9719 196.941C53.9196 194.124 53.3716 192.232 54.3279 191.265L82.6782 162.595C83.6345 161.628 85.5044 162.183 88.2879 164.26C89.7075 165.214 91.043 166.31 92.2945 167.547C93.546 168.785 94.6565 170.108 95.6261 171.517C97.7346 174.277 98.3107 176.14 97.3545 177.107L91.7013 182.824L122.078 212.862L127.984 206.889C128.94 205.922 130.838 206.449 133.678 208.47C135.098 209.423 136.433 210.519 137.685 211.757C138.936 212.994 140.047 214.317 141.016 215.726C143.068 218.543 143.616 220.435 142.66 221.402L114.225 250.157C113.269 251.124 111.399 250.569 108.616 248.492C107.196 247.538 105.861 246.442 104.609 245.205C103.358 243.967 102.247 242.644 101.278 241.235C99.1691 238.475 98.593 236.612 99.5492 235.644L105.371 229.757Z" fill="white"/>
<path d="M273.855 129.24C263.284 132.942 253.423 132.497 244.27 127.904C235.193 123.285 228.327 114.331 223.673 101.043C218.993 87.6788 218.809 76.3846 223.122 67.1603C227.511 57.9095 235.029 51.4198 245.675 47.6912C256.396 43.9362 266.231 44.3059 275.18 48.8006C284.102 53.2197 290.97 62.3 295.783 76.0416C300.569 89.7077 300.779 101.077 296.413 110.151C292.02 119.148 284.501 125.512 273.855 129.24ZM253.064 69.5154C249.44 70.7847 246.964 73.5168 245.636 77.7116C244.383 81.8799 244.815 86.9842 246.93 93.0245C249.019 98.9892 251.803 103.185 255.28 105.612C258.732 107.963 262.345 108.478 266.12 107.156C269.971 105.807 272.498 103.099 273.701 99.033C274.98 94.9402 274.562 89.8736 272.446 83.8334C270.331 77.7932 267.459 73.5861 263.83 71.2121C260.277 68.8117 256.688 68.2461 253.064 69.5154Z" fill="white"/>
<path d="M644.107 90.5767C643.307 89.1911 646.648 86.3382 654.131 82.0182C661.682 77.6582 665.858 76.171 666.658 77.5567L694.198 125.257C698.278 132.324 699.089 139.569 696.632 146.993C694.134 154.347 688.417 160.604 679.479 165.764C670.611 170.884 662.051 172.777 653.799 171.445C645.577 170.003 639.206 165.367 634.686 157.539L608.106 111.501C607.306 110.115 610.647 107.262 618.129 102.942C625.681 98.5821 629.857 97.095 630.657 98.4806L657.717 145.35C658.517 146.736 659.884 147.424 661.819 147.415C663.823 147.367 665.657 146.863 667.32 145.903C668.982 144.943 670.252 143.701 671.128 142.179C672.074 140.617 672.107 139.074 671.227 137.55L644.107 90.5767Z" fill="white"/>
<path d="M1028 427.668C1031.8 417.132 1038.37 409.763 1047.71 405.561C1057.02 401.435 1068.3 401.759 1081.54 406.535C1094.87 411.338 1103.74 418.323 1108.18 427.49C1112.58 436.732 1112.87 446.659 1109.05 457.27C1105.19 467.957 1098.7 475.353 1089.57 479.458C1080.51 483.591 1069.13 483.188 1055.43 478.25C1041.81 473.339 1032.86 466.327 1028.58 457.214C1024.37 448.128 1024.18 438.279 1028 427.668ZM1087.45 449.23C1088.76 445.618 1088.2 441.973 1085.78 438.295C1083.34 434.693 1079.11 431.807 1073.09 429.636C1067.14 427.493 1062.13 427.004 1058.05 428.17C1054.05 429.364 1051.37 431.842 1050.02 435.605C1048.63 439.443 1049.14 443.112 1051.53 446.611C1053.9 450.186 1058.09 453.059 1064.12 455.23C1070.14 457.401 1075.21 457.828 1079.34 456.511C1083.45 455.269 1086.15 452.842 1087.45 449.23Z" fill="white"/>
<path d="M1042.41 566.787C1043.8 567.589 1042.33 571.728 1038 579.205C1033.63 586.751 1030.75 590.123 1029.37 589.322L981.7 561.721C974.639 557.631 970.321 551.757 968.748 544.098C967.244 536.478 969.077 528.203 974.249 519.272C979.38 510.411 985.854 504.499 993.67 501.537C1001.52 498.685 1009.35 499.523 1017.17 504.053L1063.18 530.692C1064.56 531.494 1063.09 535.633 1058.76 543.11C1054.39 550.656 1051.51 554.029 1050.13 553.227L1003.29 526.107C1001.91 525.305 1000.38 525.391 998.708 526.363C996.995 527.405 995.658 528.757 994.695 530.419C993.733 532.08 993.252 533.789 993.252 535.546C993.212 537.371 993.953 538.725 995.476 539.607L1042.41 566.787Z" fill="white"/>
<path d="M473.933 745.294L441.436 812.488C440.704 814 436.701 812.998 429.427 809.48C422.081 805.927 418.774 803.394 419.506 801.882L445.107 748.948L428.47 740.902C427.174 740.275 427.092 738.147 428.225 734.518C428.81 732.757 429.521 731.013 430.357 729.284C431.193 727.556 432.154 725.843 433.241 724.147C435.489 720.969 437.261 719.693 438.557 720.32L471.83 736.413C473.415 737.179 474.362 738.437 474.671 740.186C474.98 741.935 474.734 743.638 473.933 745.294Z" fill="white"/>
<path d="M34.2305 316.885C32.6352 316.763 32.1667 312.394 32.825 303.78C33.4895 295.085 34.6194 290.799 36.2147 290.92L91.1346 295.118C99.2709 295.739 105.709 299.16 110.449 305.379C115.109 311.592 117.046 319.844 116.259 330.134C115.479 340.344 112.21 348.479 106.451 354.537C100.619 360.51 93.1964 363.152 84.1827 362.464L31.1772 358.413C29.5819 358.291 29.1134 353.923 29.7717 345.308C30.4362 336.613 31.5661 332.327 33.1614 332.449L87.1241 336.572C88.7194 336.694 90.0597 335.954 91.145 334.352C92.2363 332.671 92.8551 330.873 93.0014 328.958C93.1477 327.044 92.84 325.295 92.0784 323.713C91.3229 322.05 90.0677 321.152 88.3128 321.018L34.2305 316.885Z" fill="white"/>
<path d="M121.056 424.978C123.596 435.886 122.09 445.642 116.537 454.246C110.966 462.772 101.324 468.632 87.6106 471.825C73.8198 475.038 62.5717 474.002 53.8663 468.719C45.1429 463.358 39.5017 455.185 36.943 444.199C34.3661 433.135 35.7944 423.397 41.2279 414.985C46.5835 406.592 56.3515 400.743 70.532 397.441C84.6345 394.156 95.9605 395.173 104.51 400.493C112.982 405.83 118.497 413.992 121.056 424.978ZM59.4368 439.206C60.3079 442.946 62.757 445.702 66.7841 447.475C70.793 449.17 75.9141 449.291 82.1473 447.84C88.3025 446.406 92.774 444.091 95.5618 440.896C98.2716 437.718 99.1729 434.181 98.2655 430.286C97.34 426.312 94.9208 423.508 91.0079 421.873C87.0769 420.16 81.9948 420.029 75.7616 421.481C69.5284 422.933 65.0361 425.334 62.2847 428.686C59.515 431.959 58.5658 435.466 59.4368 439.206Z" fill="white"/>
<path d="M81.8656 543.514C78.9111 543.953 75.2163 540.142 70.7812 532.082C69.6628 530.049 68.4917 527.589 67.268 524.701C66.0057 521.743 65.6427 520.254 66.1789 520.233L122.158 517.92L147.811 503.805C149.003 503.149 150.904 504.614 153.516 508.199C154.876 510.007 156.077 511.857 157.118 513.75C158.16 515.642 159.096 517.592 159.927 519.601C161.557 523.725 161.742 526.135 160.48 526.829L135.458 540.597L103.528 587.614C103.262 588.126 102.086 586.901 100 583.94C97.8441 581.017 96.1683 578.469 94.9728 576.296C90.2291 567.675 88.8875 562.25 90.948 560.021L108.173 540.544L81.8656 543.514Z" fill="white"/>
<path d="M171.109 609.974C169.855 609.116 170.808 606.376 173.97 601.754C174.918 600.367 176.213 598.829 177.852 597.14C179.381 595.472 180.542 594.909 181.334 595.451L193.913 604.055L200.688 594.15L182.463 581.684C181.341 580.917 181.575 578.945 183.166 575.768C183.826 574.378 184.653 572.957 185.647 571.504C186.595 570.117 188.036 568.437 189.967 566.463C191.899 564.489 193.327 563.818 194.252 564.451L228.125 587.621C230.635 589.337 231.189 591.219 229.789 593.266L186.226 656.952C185.052 658.669 183.706 659.008 182.187 657.969L146.728 633.715C145.342 632.766 146.658 629.354 150.678 623.477C154.653 617.666 157.333 615.235 158.72 616.184L177.043 628.717L183.886 618.714L171.109 609.974Z" fill="white"/>
<path d="M280.527 722.572C280.301 722.902 278.678 722.228 275.658 720.55C272.527 718.893 270.037 717.432 268.188 716.167C260.859 711.154 257.684 707.577 258.663 705.436L279.955 656.029L242.123 694.122C240.417 695.766 235.668 693.923 227.876 688.593C225.962 687.283 223.642 685.503 220.917 683.251C218.192 681 216.943 679.709 217.169 679.379L279.55 625.802C280.537 624.927 282.959 625.566 286.816 627.72C292.835 630.964 298.043 634.333 302.439 637.824C306.724 641.337 308.683 643.646 308.315 644.751L280.527 722.572Z" fill="white"/>
<path d="M371.902 673.469C382.279 677.684 389.381 684.54 393.208 694.039C396.961 703.507 396.188 714.764 390.889 727.809C385.561 740.928 378.228 749.52 368.892 753.585C359.482 757.621 349.551 757.516 339.1 753.271C328.575 748.996 321.443 742.214 317.704 732.924C313.935 723.708 314.791 712.355 320.27 698.866C325.719 685.45 333.081 676.784 342.357 672.866C351.603 669.023 361.451 669.224 371.902 673.469ZM347.993 732.015C351.551 733.46 355.215 733.049 358.985 730.781C362.682 728.483 365.734 724.37 368.143 718.44C370.521 712.585 371.209 707.597 370.205 703.476C369.172 699.43 366.802 696.654 363.097 695.149C359.316 693.614 355.63 693.973 352.038 696.227C348.372 698.45 345.334 702.527 342.926 708.457C340.517 714.386 339.889 719.441 341.04 723.622C342.118 727.772 344.435 730.57 347.993 732.015Z" fill="white"/>
<path d="M536.887 808.378L521.613 848.274L529.569 851.32C530.839 851.807 531.121 853.756 530.414 857.169C530.038 858.824 529.535 860.473 528.905 862.117C528.276 863.76 527.549 865.324 526.724 866.807C524.971 869.819 523.46 871.082 522.19 870.596L484.535 856.18C483.265 855.693 483.021 853.758 483.802 850.374C484.104 848.691 484.57 847.027 485.199 845.383C485.828 843.74 486.593 842.191 487.492 840.736C489.17 837.695 490.645 836.418 491.915 836.904L499.423 839.779L514.698 799.883L506.853 796.879C505.583 796.393 505.301 794.443 506.008 791.031C506.31 789.347 506.776 787.684 507.405 786.04C508.034 784.396 508.799 782.847 509.698 781.393C511.451 778.38 512.963 777.117 514.233 777.604L551.999 792.063C553.269 792.549 553.514 794.484 552.732 797.869C552.43 799.552 551.965 801.215 551.335 802.859C550.706 804.503 549.942 806.052 549.042 807.506C547.364 810.547 545.89 811.825 544.62 811.338L536.887 808.378Z" fill="white"/>
<path d="M610.91 850.749C609.62 851.553 607.493 849.58 604.529 844.829C603.64 843.404 602.75 841.601 601.862 839.421C600.947 837.351 600.898 836.062 601.712 835.554L614.642 827.486L608.289 817.306L589.557 828.994C588.403 829.714 586.691 828.708 584.42 825.976C583.412 824.813 582.442 823.485 581.51 821.992C580.621 820.567 579.66 818.573 578.627 816.011C577.595 813.45 577.553 811.872 578.504 811.279L613.322 789.555C615.901 787.945 617.847 788.193 619.16 790.297L660.005 855.759C661.106 857.524 660.876 858.893 659.315 859.867L622.868 882.608C621.443 883.498 618.846 880.922 615.077 874.881C611.35 868.909 610.199 865.478 611.624 864.588L630.459 852.837L624.043 842.554L610.91 850.749Z" fill="white"/>
<path d="M943.548 595.416L971.373 627.832L977.838 622.283C978.87 621.397 980.718 622.077 983.384 624.322C984.66 625.441 985.871 626.668 987.018 628.003C988.164 629.339 989.193 630.722 990.105 632.153C991.921 635.128 992.313 637.058 991.281 637.944L960.686 664.206C959.654 665.091 957.836 664.385 955.231 662.088C953.894 661.021 952.652 659.821 951.506 658.485C950.36 657.15 949.361 655.74 948.509 654.257C946.633 651.334 946.211 649.43 947.243 648.544L953.343 643.307L925.519 610.891L919.145 616.362C918.113 617.248 916.264 616.568 913.599 614.323C912.262 613.256 911.02 612.056 909.874 610.72C908.728 609.385 907.729 607.975 906.877 606.492C905.062 603.517 904.67 601.587 905.702 600.701L936.388 574.361C937.42 573.476 939.238 574.181 941.843 576.479C943.18 577.545 944.422 578.746 945.568 580.082C946.714 581.417 947.713 582.827 948.564 584.31C950.441 587.233 950.863 589.137 949.831 590.023L943.548 595.416Z" fill="white"/>
<path d="M868.708 625.323L901.988 692.133C902.737 693.637 899.495 696.19 892.263 699.793C884.959 703.431 880.932 704.498 880.183 702.995L853.966 650.363L837.425 658.603C836.136 659.245 834.402 658.008 832.225 654.892C831.189 653.352 830.244 651.723 829.388 650.004C828.532 648.286 827.765 646.478 827.088 644.581C825.949 640.858 826.024 638.676 827.313 638.034L860.395 621.554C861.971 620.769 863.545 620.79 865.118 621.615C866.691 622.44 867.887 623.676 868.708 625.323Z" fill="white"/>
<path d="M1123.17 356.439C1125.87 357.715 1126.83 362.937 1126.04 372.103C1125.84 374.414 1125.44 377.11 1124.86 380.191C1124.26 383.352 1123.74 384.792 1123.28 384.512L1075.45 355.332L1046.28 352.815C1044.92 352.699 1044.16 350.424 1043.98 345.992C1043.85 343.733 1043.88 341.527 1044.07 339.375C1044.25 337.223 1044.56 335.082 1044.98 332.95C1045.92 328.615 1047.1 326.509 1048.54 326.633L1076.99 329.088L1129.66 307.736C1130.17 307.459 1130.46 309.131 1130.55 312.752C1130.72 316.38 1130.7 319.429 1130.49 321.9C1129.64 331.703 1127.74 336.96 1124.79 337.668L1099.65 344.292L1123.17 356.439Z" fill="white"/>
<path d="M1080.39 251.816C1081.06 253.184 1078.87 255.09 1073.83 257.535C1072.32 258.269 1070.43 258.962 1068.17 259.615C1066.02 260.306 1064.73 260.219 1064.31 259.355L1057.66 245.645L1046.86 250.885L1056.5 270.748C1057.1 271.972 1055.91 273.568 1052.96 275.537C1051.69 276.417 1050.27 277.241 1048.69 278.009C1047.18 278.743 1045.09 279.487 1042.44 280.243C1039.78 280.999 1038.21 280.873 1037.72 279.866L1019.8 242.945C1018.47 240.21 1018.92 238.301 1021.15 237.218L1090.57 203.526C1092.44 202.618 1093.78 202.992 1094.58 204.647L1113.34 243.295C1114.07 244.807 1111.24 247.117 1104.83 250.226C1098.5 253.3 1094.96 254.081 1094.23 252.57L1084.54 232.598L1073.63 237.89L1080.39 251.816Z" fill="white"/>
<path d="M1009.33 101.73C1009.58 101.417 1011.15 102.204 1014.04 104.092C1017.05 105.967 1019.43 107.601 1021.18 108.993C1028.14 114.514 1031.05 118.307 1029.92 120.373L1005.18 168.145L1045.62 132.832C1047.43 131.313 1052.04 133.488 1059.43 139.356C1061.25 140.799 1063.44 142.739 1066 145.178C1068.56 147.617 1069.71 148.993 1069.46 149.307L1003.44 198.325C1002.39 199.129 1000.02 198.32 996.327 195.897C990.553 192.234 985.597 188.505 981.46 184.71C977.434 180.902 975.645 178.461 976.09 177.384L1009.33 101.73Z" fill="white"/>
<path d="M913.33 135.169C902.349 132.966 894.092 127.556 888.558 118.939C883.104 110.339 881.761 99.1356 884.53 85.3306C887.316 71.4473 892.915 61.6369 901.327 55.8996C909.819 50.178 919.594 48.4265 930.654 50.6452C941.792 52.8796 950.065 58.211 955.473 66.6394C960.896 74.9892 962.176 86.302 959.312 100.578C956.464 114.775 950.849 124.663 942.468 130.244C934.102 135.746 924.39 137.388 913.33 135.169ZM925.887 73.1879C922.122 72.4326 918.599 73.521 915.318 76.4529C912.116 79.4006 909.885 84.012 908.626 90.2869C907.383 96.4835 907.639 101.512 909.394 105.373C911.165 109.155 914.011 111.439 917.933 112.226C921.933 113.029 925.487 111.987 928.595 109.102C931.782 106.233 934.005 101.661 935.264 95.3859C936.522 89.111 936.196 84.0274 934.284 80.1354C932.451 76.259 929.652 73.9432 925.887 73.1879Z" fill="white"/>
<path d="M808.261 106.901L817.51 32.8362C817.718 31.1692 821.831 30.8362 829.848 31.8374C837.946 32.8485 841.89 34.1876 841.682 35.8547L834.396 94.2015L852.734 96.4914C854.162 96.6698 854.922 98.6592 855.012 102.46C855.022 104.315 854.908 106.196 854.67 108.101C854.432 110.006 854.07 111.936 853.584 113.891C852.473 117.622 851.203 119.398 849.774 119.22L813.099 114.64C811.353 114.422 810.053 113.534 809.199 111.976C808.346 110.419 808.033 108.727 808.261 106.901Z" fill="white"/>
<path d="M734.668 108.326L720.516 68.0183L712.477 70.8407C711.194 71.2912 709.719 69.9864 708.051 66.9261C707.268 65.4205 706.585 63.8373 706.002 62.1767C705.418 60.5161 704.962 58.8535 704.632 57.1888C704.021 53.7575 704.357 51.8166 705.64 51.3661L743.683 38.0092C744.966 37.5587 746.404 38.8768 747.997 41.9636C748.855 43.4427 749.576 45.0126 750.159 46.6732C750.742 48.3338 751.161 50.0097 751.415 51.7009C752.102 55.1056 751.804 57.0333 750.521 57.4838L742.935 60.1472L757.087 100.455L765.012 97.6724C766.295 97.2218 767.771 98.5267 769.439 101.587C770.297 103.066 771.018 104.636 771.601 106.297C772.184 107.957 772.603 109.633 772.858 111.324C773.469 114.756 773.133 116.696 771.85 117.147L733.693 130.544C732.41 130.994 730.972 129.676 729.38 126.589C728.521 125.11 727.8 123.54 727.217 121.88C726.634 120.219 726.215 118.543 725.961 116.852C725.274 113.447 725.572 111.52 726.856 111.069L734.668 108.326Z" fill="white"/>
<path d="M592.821 260.734C581.621 260.85 572.424 257.265 565.228 249.98C558.112 242.693 554.48 232.01 554.334 217.931C554.187 203.772 557.635 193.015 564.679 185.662C571.803 178.307 581.005 174.572 592.284 174.454C603.644 174.336 612.841 177.841 619.875 184.968C626.909 192.016 630.501 202.819 630.652 217.378C630.803 231.857 627.355 242.694 620.31 249.887C613.263 257.001 604.1 260.616 592.821 260.734ZM592.284 197.496C588.444 197.536 585.222 199.329 582.619 202.876C580.096 206.423 578.867 211.396 578.934 217.795C579 224.115 580.29 228.982 582.806 232.396C585.321 235.73 588.578 237.376 592.578 237.335C596.658 237.292 599.919 235.538 602.364 232.073C604.888 228.606 606.117 223.673 606.05 217.274C605.984 210.874 604.612 205.968 601.937 202.556C599.341 199.142 596.124 197.456 592.284 197.496Z" fill="white"/>
<path d="M558.614 123.363C561.178 121.831 566.047 123.946 573.22 129.707C575.028 131.159 577.049 132.987 579.281 135.191C581.576 137.444 582.479 138.682 581.992 138.906L531.122 162.386L512.787 185.215C511.936 186.275 509.619 185.646 505.838 183.328C503.891 182.175 502.076 180.922 500.392 179.569C498.708 178.217 497.099 176.771 495.565 175.231C492.485 172.039 491.396 169.882 492.297 168.759L510.181 146.491L521.775 90.853C521.826 90.2783 523.38 90.9622 526.437 92.9046C529.545 94.7846 532.065 96.501 533.999 98.0539C541.671 104.215 544.979 108.72 543.925 111.566L535.426 136.138L558.614 123.363Z" fill="white"/>
<path d="M320.886 34.9766C320.899 34.5768 322.63 34.2722 326.078 34.0627C329.609 33.7758 332.494 33.6682 334.733 33.7401C343.609 34.0249 348.209 35.3331 348.534 37.6648L357.156 90.7686L368.564 38.3075C369.118 36.0041 374.113 35.0038 383.548 35.3066C385.867 35.381 388.78 35.6346 392.288 36.0673C395.796 36.5 397.544 36.9163 397.531 37.3161L373.754 116.034C373.393 117.303 371.007 118.067 366.597 118.326C359.777 118.827 353.575 118.788 347.991 118.209C342.489 117.552 339.596 116.659 339.312 115.529L320.886 34.9766Z" fill="white"/>
<path d="M460.94 93.9079C462.337 94.5071 461.931 97.38 459.724 102.526C459.061 104.07 458.089 105.83 456.807 107.804C455.63 109.736 454.6 110.513 453.718 110.135L439.712 104.127L434.982 115.155L455.273 123.86C456.523 124.396 456.675 126.376 455.729 129.8C455.35 131.292 454.814 132.846 454.12 134.464C453.458 136.008 452.37 137.935 450.856 140.245C449.343 142.556 448.072 143.49 447.042 143.049L409.326 126.87C406.532 125.672 405.624 123.933 406.602 121.654L437.019 50.7424C437.839 48.8309 439.094 48.2378 440.785 48.9631L480.267 65.8985C481.81 66.5608 481.179 70.1637 478.372 76.7071C475.597 83.177 473.437 86.0808 471.893 85.4185L451.491 76.667L446.713 87.8055L460.94 93.9079Z" fill="white"/>
<path d="M176.392 173.532L139.072 108.892C138.232 107.437 141.311 104.69 148.308 100.65C155.375 96.5696 159.328 95.2571 160.168 96.712L189.568 147.634L205.572 138.394C206.819 137.674 208.626 138.802 210.99 141.779C212.118 143.252 213.162 144.82 214.122 146.483C215.082 148.146 215.958 149.903 216.75 151.755C218.116 155.401 218.176 157.584 216.928 158.304L184.92 176.784C183.396 177.664 181.824 177.74 180.203 177.013C178.582 176.286 177.312 175.126 176.392 173.532Z" fill="white"/>
</svg>
